<svg xmlns="http://www.w3.org/2000/svg" width="690.22" height="205.2" viewBox="0 0 690.22 205.2"><g id="Layer_2" data-name="Layer 2"><g id="black"><path d="M0,205.2V51.29H28V67.4L33.57,61C41,52.42,51.65,48.09,65.27,48.09c28.9,0,51.54,25.15,51.54,57.26s-22.64,57.26-51.54,57.26c-13.62,0-24.29-4.33-31.7-12.87L28,143.29V205.2Zm58.41-131C40.48,74.22,28,87,28,105.35s12.51,31.12,30.44,31.12,30.43-12.8,30.43-31.12S76.33,74.22,58.41,74.22Z" fill="#333"/><path d="M183.25,162.61c-32.24,0-57.49-25.15-57.49-57.26S151,48.09,183.25,48.09s57.49,25.15,57.49,57.26S215.48,162.61,183.25,162.61Zm0-87.47c-17.11,0-29.53,12.7-29.53,30.21s12.42,30.21,29.53,30.21,29.52-12.71,29.52-30.21S200.35,75.14,183.25,75.14Z" fill="#333"/><path d="M291.15,162.61c-21.42,0-36.54-7.67-45-22.81l24-13.64c4,8,11.18,12.14,21,12.14,13.53,0,15.55-6.44,15.55-10.28,0-7-8.39-9.31-19-12.27-16.62-4.63-37.31-10.39-37.31-33.3,0-23.74,20.94-34.36,41.69-34.36,17.09,0,31.21,7.11,40.12,20.13L308.56,81c-4.1-6.06-9.52-9-16.5-9-9.44,0-12.8,5-12.8,9.6,0,7.12,8.29,9.3,18.78,12.06,16.73,4.4,37.54,9.88,37.54,34.66C335.58,153.58,312.63,162.61,291.15,162.61Z" fill="#333"/><path d="M346.37,159.4V51.29h28V159.4Zm14-124.57a17.64,17.64,0,0,1-17.42-17.41,17.42,17.42,0,1,1,34.83,0A17.64,17.64,0,0,1,360.36,34.83Z" fill="#333"/><path d="M405.49,106V121.6c0,1.15,0,2.29.05,3.48v11.24a28.1,28.1,0,0,0,10,18.14,29.1,29.1,0,0,0,18.25,6.33c1.34,0,2.28-.09,2.59-.12l.15,0H453V105.81H433.55V98.69Z" fill="#333"/><path d="M433.55,78.72l2.22-.71a34,34,0,0,0,13.45-8A34.52,34.52,0,0,0,459,51.3H433.45v-31l-28,8.39V51.3H387.18V77.89h18.31V106l28.06-7.32Z" fill="red"/><polygon points="488.22 160.4 488.14 51.29 513.58 51.29 511.76 118.8 554.93 51.29 585.34 51.29 515.22 160.4 488.22 160.4" fill="red"/><path d="M637.76,162.61c-35.46,0-60.23-23.55-60.23-57.26,0-33.18,24.27-57.26,57.72-57.26,31.34,0,55,24.61,55,57.26a65.61,65.61,0,0,1-.83,10.54H606.18l1.57,4.29c4.39,12,14.65,18.12,30.47,18.12,8.69,0,16.9-2.92,22.5-7.91l22.21,12.77C672.34,156.07,657.17,162.61,637.76,162.61ZM635,72.16c-14.46,0-24.42,7.26-28,20.43l-1.11,4h57.61l-1.11-4C658.78,79.61,648.81,72.16,635,72.16Z" fill="red"/></g></g></svg>