<svg xmlns="http://www.w3.org/2000/svg" width="351.81" height="274.72" viewBox="0 0 351.81 274.72"><g id="Layer_2" data-name="Layer 2"><g id="element"><path d="M0,188V47H25.63V61.76l5.13-5.91C37.55,48,47.33,44.06,59.81,44.06c26.49,0,47.23,23,47.23,52.47S86.3,149,59.81,149c-12.48,0-22.26-4-29-11.79l-5.13-5.91V188ZM53.52,68C37.1,68,25.63,79.74,25.63,96.53s11.47,28.53,27.89,28.53,27.89-11.73,27.89-28.53S69.94,68,53.52,68Z" fill="#333"/><path d="M167.92,149c-29.54,0-52.68-23-52.68-52.47s23.14-52.47,52.68-52.47,52.68,23,52.68,52.47S197.46,149,167.92,149Zm0-80.15c-15.68,0-27.06,11.64-27.06,27.68s11.38,27.69,27.06,27.69S195,112.57,195,96.53,183.59,68.85,167.92,68.85Z" fill="#333"/><path d="M266.79,149c-19.63,0-33.48-7-41.22-20.89l22-12.5c3.65,7.29,10.24,11.12,19.26,11.12,12.4,0,14.26-5.9,14.26-9.42,0-6.39-7.7-8.53-17.44-11.24-15.23-4.25-34.18-9.53-34.18-30.52,0-21.75,19.19-31.49,38.2-31.49,15.66,0,28.59,6.53,36.76,18.45L282.75,74.17c-3.76-5.55-8.73-8.26-15.12-8.26-8.65,0-11.74,4.55-11.74,8.8,0,6.52,7.6,8.52,17.22,11.05,15.33,4,34.4,9,34.4,31.76C307.51,140.73,286.48,149,266.79,149Z" fill="#333"/><path d="M317.4,146.07V47H343v99.07ZM330.21,31.92a16.18,16.18,0,0,1-16-16,16,16,0,0,1,31.92,0A16.18,16.18,0,0,1,330.21,31.92Z" fill="#333"/><path d="M90.9,222.86v14.29c0,1,0,2.09,0,3.18v10.31a25.8,25.8,0,0,0,9.22,16.62,26.63,26.63,0,0,0,16.72,5.8c1.22,0,2.08-.09,2.37-.11l.14,0h15.09V222.67H116.61v-6.52Z" fill="#333"/><path d="M116.61,197.86l2-.66A31.05,31.05,0,0,0,131,189.88a31.63,31.63,0,0,0,8.94-17.16H116.52V144.35L90.9,152v20.68H74.12v24.37H90.9v25.77l25.71-6.71Z" fill="red"/><polygon points="166.64 271.84 166.64 172.72 189.94 172.72 188.28 234.58 227.84 172.72 255.7 172.72 191.38 272.34 166.64 271.84" fill="red"/><path d="M303.74,274.72c-32.5,0-55.19-21.58-55.19-52.47,0-30.4,22.24-52.47,52.89-52.47,28.71,0,50.37,22.56,50.37,52.47a60.71,60.71,0,0,1-.76,9.67H274.8l1.44,3.92c4,11,13.42,16.61,27.92,16.61,8,0,15.48-2.68,20.62-7.25l20.35,11.7C335.43,268.73,321.52,274.72,303.74,274.72Zm-2.51-82.88c-13.26,0-22.38,6.65-25.7,18.73l-1,3.69h52.79l-1-3.7C323,198.66,313.87,191.84,301.23,191.84Z" fill="red"/></g></g></svg>